# xmcd
#
# Track frame offsets:
#	150
#	13790
#	27623
#	44589
#	59341
#	74880
#	90144
#	104629
#	123884
#	141462
#	162112
#	175910
#
# Disc length: 2591 seconds
#
# Revision: 1
# Processed by: cddbd v1.5.2PL0 Copyright (c) Steve Scherf et al.
# Submitted via: audiograbber 1.83.01
#
DISCID=ae0a1d0c
DTITLE=Paul and Helen Mateki - Something To Sing About
DYEAR=1900
DGENRE=Country
TTITLE0=Something To Sing About
TTITLE1=When The River Runs Dry
TTITLE2=Peace
TTITLE3=Please Dont´t Let Me Let You Go
TTITLE4=What went wrong
TTITLE5=We´ve Got A Love
TTITLE6=Our Children Are Asking
TTITLE7=My One And Only
TTITLE8=He Misses The Misses
TTITLE9=None So Blind
TTITLE10=Best Friends
TTITLE11=Christmas Dreamin'
EXTD=
EXTT0=
EXTT1=
EXTT2=
EXTT3=
EXTT4=
EXTT5=
EXTT6=
EXTT7=
EXTT8=
EXTT9=
EXTT10=
EXTT11=
PLAYORDER=
